<?xml version="1.0" encoding="utf-8" standalone="no"?>
<!DOCTYPE svg PUBLIC "-//W3C//DTD SVG 1.1//EN"
  "http://www.w3.org/Graphics/SVG/1.1/DTD/svg11.dtd">
<svg xmlns:xlink="http://www.w3.org/1999/xlink" width="374.350264pt" height="241.124727pt" viewBox="0 0 374.350264 241.124727" xmlns="http://www.w3.org/2000/svg" version="1.1">
 <metadata>
  <rdf:RDF xmlns:dc="http://purl.org/dc/elements/1.1/" xmlns:cc="http://creativecommons.org/ns#" xmlns:rdf="http://www.w3.org/1999/02/22-rdf-syntax-ns#">
   <cc:Work>
    <dc:type rdf:resource="http://purl.org/dc/dcmitype/StillImage"/>
    <dc:date>2026-06-20T11:52:01.883755</dc:date>
    <dc:format>image/svg+xml</dc:format>
    <dc:creator>
     <cc:Agent>
      <dc:title>Matplotlib v3.11.0, https://matplotlib.org/</dc:title>
     </cc:Agent>
    </dc:creator>
   </cc:Work>
  </rdf:RDF>
 </metadata>
 <defs>
  <style type="text/css">*{stroke-linejoin: round; stroke-linecap: butt}</style>
 </defs>
 <g id="figure_1">
  <g id="patch_1">
   <path d="M 0 241.124727 
L 374.350264 241.124727 
L 374.350264 0 
L 0 0 
z
" style="fill: #ffffff"/>
  </g>
  <g id="axes_1">
   <g id="patch_2">
    <path d="M 42.719014 206.970459 
L 367.150264 206.970459 
L 367.150264 22.11626 
L 42.719014 22.11626 
z
" style="fill: #ffffff"/>
   </g>
   <g id="matplotlib.axis_1">
    <g id="xtick_1">
     <g id="line2d_1">
      <defs>
       <path id="mefb2e33806" d="M 0 0 
L 0 3.5 
" style="stroke: #000000; stroke-width: 0.8"/>
      </defs>
      <g>
       <use xlink:href="#mefb2e33806" x="57.465889" y="206.970459" style="stroke: #000000; stroke-width: 0.8"/>
      </g>
     </g>
     <g id="text_1">
      <text style="font-size: 8.5px; font-family: 'Arial', 'DejaVu Sans', 'Liberation Sans', sans-serif; text-anchor: middle" x="57.465889" y="220.158691" transform="rotate(-0 57.465889 220.158691)">0</text>
     </g>
    </g>
    <g id="xtick_2">
     <g id="line2d_2">
      <g>
       <use xlink:href="#mefb2e33806" x="149.633857" y="206.970459" style="stroke: #000000; stroke-width: 0.8"/>
      </g>
     </g>
     <g id="text_2">
      <text style="font-size: 8.5px; font-family: 'Arial', 'DejaVu Sans', 'Liberation Sans', sans-serif; text-anchor: middle" x="149.633857" y="220.158691" transform="rotate(-0 149.633857 220.158691)">25</text>
     </g>
    </g>
    <g id="xtick_3">
     <g id="line2d_3">
      <g>
       <use xlink:href="#mefb2e33806" x="241.801826" y="206.970459" style="stroke: #000000; stroke-width: 0.8"/>
      </g>
     </g>
     <g id="text_3">
      <text style="font-size: 8.5px; font-family: 'Arial', 'DejaVu Sans', 'Liberation Sans', sans-serif; text-anchor: middle" x="241.801826" y="220.158691" transform="rotate(-0 241.801826 220.158691)">50</text>
     </g>
    </g>
    <g id="xtick_4">
     <g id="line2d_4">
      <g>
       <use xlink:href="#mefb2e33806" x="333.969795" y="206.970459" style="stroke: #000000; stroke-width: 0.8"/>
      </g>
     </g>
     <g id="text_4">
      <text style="font-size: 8.5px; font-family: 'Arial', 'DejaVu Sans', 'Liberation Sans', sans-serif; text-anchor: middle" x="333.969795" y="220.158691" transform="rotate(-0 333.969795 220.158691)">75</text>
     </g>
    </g>
    <g id="text_5">
     <text style="font-size: 8.5px; font-family: 'Arial', 'DejaVu Sans', 'Liberation Sans', sans-serif; text-anchor: middle" x="204.934639" y="232.135742" transform="rotate(-0 204.934639 232.135742)">CAV penetration (%)</text>
    </g>
   </g>
   <g id="matplotlib.axis_2">
    <g id="ytick_1">
     <g id="line2d_5">
      <defs>
       <path id="me8e8f335a3" d="M 0 0 
L -3.5 0 
" style="stroke: #000000; stroke-width: 0.8"/>
      </defs>
      <g>
       <use xlink:href="#me8e8f335a3" x="42.719014" y="205.693961" style="stroke: #000000; stroke-width: 0.8"/>
      </g>
     </g>
     <g id="text_6">
      <text style="font-size: 8.5px; font-family: 'Arial', 'DejaVu Sans', 'Liberation Sans', sans-serif; text-anchor: end" x="35.719014" y="208.788078" transform="rotate(-0 35.719014 208.788078)">15.5</text>
     </g>
    </g>
    <g id="ytick_2">
     <g id="line2d_6">
      <g>
       <use xlink:href="#me8e8f335a3" x="42.719014" y="181.571615" style="stroke: #000000; stroke-width: 0.8"/>
      </g>
     </g>
     <g id="text_7">
      <text style="font-size: 8.5px; font-family: 'Arial', 'DejaVu Sans', 'Liberation Sans', sans-serif; text-anchor: end" x="35.719014" y="184.665732" transform="rotate(-0 35.719014 184.665732)">16.0</text>
     </g>
    </g>
    <g id="ytick_3">
     <g id="line2d_7">
      <g>
       <use xlink:href="#me8e8f335a3" x="42.719014" y="157.44927" style="stroke: #000000; stroke-width: 0.8"/>
      </g>
     </g>
     <g id="text_8">
      <text style="font-size: 8.5px; font-family: 'Arial', 'DejaVu Sans', 'Liberation Sans', sans-serif; text-anchor: end" x="35.719014" y="160.543386" transform="rotate(-0 35.719014 160.543386)">16.5</text>
     </g>
    </g>
    <g id="ytick_4">
     <g id="line2d_8">
      <g>
       <use xlink:href="#me8e8f335a3" x="42.719014" y="133.326924" style="stroke: #000000; stroke-width: 0.8"/>
      </g>
     </g>
     <g id="text_9">
      <text style="font-size: 8.5px; font-family: 'Arial', 'DejaVu Sans', 'Liberation Sans', sans-serif; text-anchor: end" x="35.719014" y="136.42104" transform="rotate(-0 35.719014 136.42104)">17.0</text>
     </g>
    </g>
    <g id="ytick_5">
     <g id="line2d_9">
      <g>
       <use xlink:href="#me8e8f335a3" x="42.719014" y="109.204578" style="stroke: #000000; stroke-width: 0.8"/>
      </g>
     </g>
     <g id="text_10">
      <text style="font-size: 8.5px; font-family: 'Arial', 'DejaVu Sans', 'Liberation Sans', sans-serif; text-anchor: end" x="35.719014" y="112.298694" transform="rotate(-0 35.719014 112.298694)">17.5</text>
     </g>
    </g>
    <g id="ytick_6">
     <g id="line2d_10">
      <g>
       <use xlink:href="#me8e8f335a3" x="42.719014" y="85.082232" style="stroke: #000000; stroke-width: 0.8"/>
      </g>
     </g>
     <g id="text_11">
      <text style="font-size: 8.5px; font-family: 'Arial', 'DejaVu Sans', 'Liberation Sans', sans-serif; text-anchor: end" x="35.719014" y="88.176348" transform="rotate(-0 35.719014 88.176348)">18.0</text>
     </g>
    </g>
    <g id="ytick_7">
     <g id="line2d_11">
      <g>
       <use xlink:href="#me8e8f335a3" x="42.719014" y="60.959886" style="stroke: #000000; stroke-width: 0.8"/>
      </g>
     </g>
     <g id="text_12">
      <text style="font-size: 8.5px; font-family: 'Arial', 'DejaVu Sans', 'Liberation Sans', sans-serif; text-anchor: end" x="35.719014" y="64.054002" transform="rotate(-0 35.719014 64.054002)">18.5</text>
     </g>
    </g>
    <g id="ytick_8">
     <g id="line2d_12">
      <g>
       <use xlink:href="#me8e8f335a3" x="42.719014" y="36.83754" style="stroke: #000000; stroke-width: 0.8"/>
      </g>
     </g>
     <g id="text_13">
      <text style="font-size: 8.5px; font-family: 'Arial', 'DejaVu Sans', 'Liberation Sans', sans-serif; text-anchor: end" x="35.719014" y="39.931656" transform="rotate(-0 35.719014 39.931656)">19.0</text>
     </g>
    </g>
    <g id="text_14">
     <text style="font-size: 8.5px; font-family: 'Arial', 'DejaVu Sans', 'Liberation Sans', sans-serif; text-anchor: middle" x="13.388232" y="114.543359" transform="rotate(-90 13.388232 114.543359)">HDV fuel consumption (g/veh)</text>
    </g>
   </g>
   <g id="line2d_13">
    <path d="M 57.465889 143.896708 
L 149.633857 116.842291 
L 241.801826 162.981778 
L 333.969795 178.728845 
" clip-path="url(#pcdfd66fc04)" style="fill: none; stroke: #7884b4; stroke-width: 2; stroke-linecap: square"/>
    <defs>
     <path id="m22e0726115" d="M 0 2.9 
C 0.769089 2.9 1.506782 2.594438 2.05061 2.05061 
C 2.594438 1.506782 2.9 0.769089 2.9 0 
C 2.9 -0.769089 2.594438 -1.506782 2.05061 -2.05061 
C 1.506782 -2.594438 0.769089 -2.9 0 -2.9 
C -0.769089 -2.9 -1.506782 -2.594438 -2.05061 -2.05061 
C -2.594438 -1.506782 -2.9 -0.769089 -2.9 0 
C -2.9 0.769089 -2.594438 1.506782 -2.05061 2.05061 
C -1.506782 2.594438 -0.769089 2.9 0 2.9 
z
" style="stroke: #7884b4; stroke-width: 1.4"/>
    </defs>
    <g clip-path="url(#pcdfd66fc04)">
     <use xlink:href="#m22e0726115" x="57.465889" y="143.896708" style="fill: #ffffff; stroke: #7884b4; stroke-width: 1.4"/>
     <use xlink:href="#m22e0726115" x="149.633857" y="116.842291" style="fill: #ffffff; stroke: #7884b4; stroke-width: 1.4"/>
     <use xlink:href="#m22e0726115" x="241.801826" y="162.981778" style="fill: #ffffff; stroke: #7884b4; stroke-width: 1.4"/>
     <use xlink:href="#m22e0726115" x="333.969795" y="178.728845" style="fill: #ffffff; stroke: #7884b4; stroke-width: 1.4"/>
    </g>
   </g>
   <g id="line2d_14">
    <path d="M 57.465889 146.468922 
L 149.633857 149.78039 
L 241.801826 169.958105 
L 333.969795 176.377254 
" clip-path="url(#pcdfd66fc04)" style="fill: none; stroke: #42949e; stroke-width: 2; stroke-linecap: square"/>
    <defs>
     <path id="mcf491b7580" d="M 0 2.9 
C 0.769089 2.9 1.506782 2.594438 2.05061 2.05061 
C 2.594438 1.506782 2.9 0.769089 2.9 0 
C 2.9 -0.769089 2.594438 -1.506782 2.05061 -2.05061 
C 1.506782 -2.594438 0.769089 -2.9 0 -2.9 
C -0.769089 -2.9 -1.506782 -2.594438 -2.05061 -2.05061 
C -2.594438 -1.506782 -2.9 -0.769089 -2.9 0 
C -2.9 0.769089 -2.594438 1.506782 -2.05061 2.05061 
C -1.506782 2.594438 -0.769089 2.9 0 2.9 
z
" style="stroke: #42949e; stroke-width: 1.4"/>
    </defs>
    <g clip-path="url(#pcdfd66fc04)">
     <use xlink:href="#mcf491b7580" x="57.465889" y="146.468922" style="fill: #ffffff; stroke: #42949e; stroke-width: 1.4"/>
     <use xlink:href="#mcf491b7580" x="149.633857" y="149.78039" style="fill: #ffffff; stroke: #42949e; stroke-width: 1.4"/>
     <use xlink:href="#mcf491b7580" x="241.801826" y="169.958105" style="fill: #ffffff; stroke: #42949e; stroke-width: 1.4"/>
     <use xlink:href="#mcf491b7580" x="333.969795" y="176.377254" style="fill: #ffffff; stroke: #42949e; stroke-width: 1.4"/>
    </g>
   </g>
   <g id="line2d_15">
    <path d="M 57.465889 110.130683 
L 149.633857 109.527721 
L 241.801826 126.317404 
L 333.969795 137.979352 
" clip-path="url(#pcdfd66fc04)" style="fill: none; stroke: #8bcf8b; stroke-width: 2; stroke-linecap: square"/>
    <defs>
     <path id="m971116123c" d="M 0 2.9 
C 0.769089 2.9 1.506782 2.594438 2.05061 2.05061 
C 2.594438 1.506782 2.9 0.769089 2.9 0 
C 2.9 -0.769089 2.594438 -1.506782 2.05061 -2.05061 
C 1.506782 -2.594438 0.769089 -2.9 0 -2.9 
C -0.769089 -2.9 -1.506782 -2.594438 -2.05061 -2.05061 
C -2.594438 -1.506782 -2.9 -0.769089 -2.9 0 
C -2.9 0.769089 -2.594438 1.506782 -2.05061 2.05061 
C -1.506782 2.594438 -0.769089 2.9 0 2.9 
z
" style="stroke: #8bcf8b; stroke-width: 1.4"/>
    </defs>
    <g clip-path="url(#pcdfd66fc04)">
     <use xlink:href="#m971116123c" x="57.465889" y="110.130683" style="fill: #ffffff; stroke: #8bcf8b; stroke-width: 1.4"/>
     <use xlink:href="#m971116123c" x="149.633857" y="109.527721" style="fill: #ffffff; stroke: #8bcf8b; stroke-width: 1.4"/>
     <use xlink:href="#m971116123c" x="241.801826" y="126.317404" style="fill: #ffffff; stroke: #8bcf8b; stroke-width: 1.4"/>
     <use xlink:href="#m971116123c" x="333.969795" y="137.979352" style="fill: #ffffff; stroke: #8bcf8b; stroke-width: 1.4"/>
    </g>
   </g>
   <g id="line2d_16">
    <path d="M 57.465889 50.357874 
L 149.633857 50.814413 
L 241.801826 76.775026 
L 333.969795 85.74275 
" clip-path="url(#pcdfd66fc04)" style="fill: none; stroke: #0f4d92; stroke-width: 2; stroke-linecap: square"/>
    <defs>
     <path id="m68a2cd58b6" d="M 0 2.9 
C 0.769089 2.9 1.506782 2.594438 2.05061 2.05061 
C 2.594438 1.506782 2.9 0.769089 2.9 0 
C 2.9 -0.769089 2.594438 -1.506782 2.05061 -2.05061 
C 1.506782 -2.594438 0.769089 -2.9 0 -2.9 
C -0.769089 -2.9 -1.506782 -2.594438 -2.05061 -2.05061 
C -2.594438 -1.506782 -2.9 -0.769089 -2.9 0 
C -2.9 0.769089 -2.594438 1.506782 -2.05061 2.05061 
C -1.506782 2.594438 -0.769089 2.9 0 2.9 
z
" style="stroke: #0f4d92; stroke-width: 1.4"/>
    </defs>
    <g clip-path="url(#pcdfd66fc04)">
     <use xlink:href="#m68a2cd58b6" x="57.465889" y="50.357874" style="fill: #ffffff; stroke: #0f4d92; stroke-width: 1.4"/>
     <use xlink:href="#m68a2cd58b6" x="149.633857" y="50.814413" style="fill: #ffffff; stroke: #0f4d92; stroke-width: 1.4"/>
     <use xlink:href="#m68a2cd58b6" x="241.801826" y="76.775026" style="fill: #ffffff; stroke: #0f4d92; stroke-width: 1.4"/>
     <use xlink:href="#m68a2cd58b6" x="333.969795" y="85.74275" style="fill: #ffffff; stroke: #0f4d92; stroke-width: 1.4"/>
    </g>
   </g>
   <g id="patch_3">
    <path d="M 42.719014 206.970459 
L 42.719014 22.11626 
" style="fill: none; stroke: #000000; stroke-width: 0.8; stroke-linejoin: miter; stroke-linecap: square"/>
   </g>
   <g id="patch_4">
    <path d="M 42.719014 206.970459 
L 367.150264 206.970459 
" style="fill: none; stroke: #000000; stroke-width: 0.8; stroke-linejoin: miter; stroke-linecap: square"/>
   </g>
   <g id="text_15">
    <text style="font-size: 6.8px; font-family: 'Arial', 'DejaVu Sans', 'Liberation Sans', sans-serif; text-anchor: start; fill: #7884b4" x="340.605889" y="173.299836" transform="rotate(-0 340.605889 173.299836)">16.1</text>
   </g>
   <g id="text_16">
    <text style="font-size: 6.8px; font-family: 'Arial', 'DejaVu Sans', 'Liberation Sans', sans-serif; text-anchor: start; fill: #42949e" x="340.605889" y="175.740762" transform="rotate(-0 340.605889 175.740762)">16.1</text>
   </g>
   <g id="text_17">
    <text style="font-size: 6.8px; font-family: 'Arial', 'DejaVu Sans', 'Liberation Sans', sans-serif; text-anchor: start; fill: #8bcf8b" x="340.605889" y="142.135376" transform="rotate(-0 340.605889 142.135376)">16.9</text>
   </g>
   <g id="text_18">
    <text style="font-size: 6.8px; font-family: 'Arial', 'DejaVu Sans', 'Liberation Sans', sans-serif; text-anchor: start; fill: #0f4d92" x="340.605889" y="94.69129" transform="rotate(-0 340.605889 94.69129)">18.0</text>
   </g>
   <g id="text_19">
    <text style="font-size: 9.5px; font-family: 'Arial', 'DejaVu Sans', 'Liberation Sans', sans-serif; text-anchor: middle" x="204.934639" y="14.11626" transform="rotate(-0 204.934639 14.11626)">HDV fuel use over traffic volume and CAV penetration</text>
   </g>
   <g id="legend_1">
    <g id="line2d_17">
     <path d="M 238.374326 31.062451 
L 245.374326 31.062451 
L 252.374326 31.062451 
" style="fill: none; stroke: #7884b4; stroke-width: 2; stroke-linecap: square"/>
     <g>
      <use xlink:href="#m22e0726115" x="245.374326" y="31.062451" style="fill: #ffffff; stroke: #7884b4; stroke-width: 1.4"/>
     </g>
    </g>
    <g id="text_20">
     <text style="font-size: 7px; font-family: 'Arial', 'DejaVu Sans', 'Liberation Sans', sans-serif; text-anchor: start" x="257.974326" y="33.512451" transform="rotate(-0 257.974326 33.512451)">2400 veh/h</text>
    </g>
    <g id="line2d_18">
     <path d="M 238.374326 41.131787 
L 245.374326 41.131787 
L 252.374326 41.131787 
" style="fill: none; stroke: #42949e; stroke-width: 2; stroke-linecap: square"/>
     <g>
      <use xlink:href="#mcf491b7580" x="245.374326" y="41.131787" style="fill: #ffffff; stroke: #42949e; stroke-width: 1.4"/>
     </g>
    </g>
    <g id="text_21">
     <text style="font-size: 7px; font-family: 'Arial', 'DejaVu Sans', 'Liberation Sans', sans-serif; text-anchor: start" x="257.974326" y="43.581787" transform="rotate(-0 257.974326 43.581787)">3000 veh/h</text>
    </g>
    <g id="line2d_19">
     <path d="M 306.612295 31.062451 
L 313.612295 31.062451 
L 320.612295 31.062451 
" style="fill: none; stroke: #8bcf8b; stroke-width: 2; stroke-linecap: square"/>
     <g>
      <use xlink:href="#m971116123c" x="313.612295" y="31.062451" style="fill: #ffffff; stroke: #8bcf8b; stroke-width: 1.4"/>
     </g>
    </g>
    <g id="text_22">
     <text style="font-size: 7px; font-family: 'Arial', 'DejaVu Sans', 'Liberation Sans', sans-serif; text-anchor: start" x="326.212295" y="33.512451" transform="rotate(-0 326.212295 33.512451)">3600 veh/h</text>
    </g>
    <g id="line2d_20">
     <path d="M 306.612295 41.131787 
L 313.612295 41.131787 
L 320.612295 41.131787 
" style="fill: none; stroke: #0f4d92; stroke-width: 2; stroke-linecap: square"/>
     <g>
      <use xlink:href="#m68a2cd58b6" x="313.612295" y="41.131787" style="fill: #ffffff; stroke: #0f4d92; stroke-width: 1.4"/>
     </g>
    </g>
    <g id="text_23">
     <text style="font-size: 7px; font-family: 'Arial', 'DejaVu Sans', 'Liberation Sans', sans-serif; text-anchor: start" x="326.212295" y="43.581787" transform="rotate(-0 326.212295 43.581787)">4200 veh/h</text>
    </g>
   </g>
  </g>
 </g>
 <defs>
  <clipPath id="pcdfd66fc04">
   <rect x="42.719014" y="22.11626" width="324.43125" height="184.854199"/>
  </clipPath>
 </defs>
</svg>
