<?xml version="1.0" encoding="utf-8" standalone="no"?>
<!DOCTYPE svg PUBLIC "-//W3C//DTD SVG 1.1//EN"
  "http://www.w3.org/Graphics/SVG/1.1/DTD/svg11.dtd">
<svg xmlns:xlink="http://www.w3.org/1999/xlink" width="311.900125pt" height="300.080566pt" viewBox="0 0 311.900125 300.080566" xmlns="http://www.w3.org/2000/svg" version="1.1">
 <metadata>
  <rdf:RDF xmlns:dc="http://purl.org/dc/elements/1.1/" xmlns:cc="http://creativecommons.org/ns#" xmlns:rdf="http://www.w3.org/1999/02/22-rdf-syntax-ns#">
   <cc:Work>
    <dc:type rdf:resource="http://purl.org/dc/dcmitype/StillImage"/>
    <dc:date>2026-06-20T11:52:04.964773</dc:date>
    <dc:format>image/svg+xml</dc:format>
    <dc:creator>
     <cc:Agent>
      <dc:title>Matplotlib v3.11.0, https://matplotlib.org/</dc:title>
     </cc:Agent>
    </dc:creator>
   </cc:Work>
  </rdf:RDF>
 </metadata>
 <defs>
  <style type="text/css">*{stroke-linejoin: round; stroke-linecap: butt}</style>
 </defs>
 <g id="figure_1">
  <g id="patch_1">
   <path d="M -0 300.080566 
L 311.900125 300.080566 
L 311.900125 0 
L -0 0 
z
" style="fill: #ffffff"/>
  </g>
  <g id="axes_1">
   <g id="patch_2">
    <path d="M 242.188725 148.58626 
C 242.188725 134.604747 239.434672 120.759188 234.084179 107.841955 
C 228.733686 94.924722 220.890806 83.187023 211.004384 73.300601 
C 201.117962 63.414179 189.380263 55.571299 176.46303 50.220806 
C 163.545797 44.870313 149.700237 42.11626 135.718725 42.11626 
C 121.737213 42.11626 107.891653 44.870313 94.97442 50.220806 
C 82.057187 55.571299 70.319488 63.414179 60.433066 73.300601 
C 50.546644 83.187023 42.703764 94.924722 37.353271 107.841955 
C 32.002778 120.759188 29.248725 134.604747 29.248725 148.58626 
C 29.248725 162.567772 32.002778 176.413332 37.353271 189.330565 
C 42.703764 202.247798 50.546644 213.985497 60.433066 223.871919 
C 70.319488 233.758341 82.057187 241.60122 94.97442 246.951714 
C 107.891653 252.302207 121.737213 255.05626 135.718725 255.05626 
C 149.700237 255.05626 163.545797 252.302207 176.46303 246.951714 
C 189.380263 241.60122 201.117962 233.758341 211.004384 223.871919 
C 220.890806 213.985497 228.733686 202.247798 234.084179 189.330565 
C 239.434672 176.413332 242.188725 162.567772 242.188725 148.58626 
M 135.718725 148.58626 
C 135.718725 148.58626 135.718725 148.58626 135.718725 148.58626 
C 135.718725 148.58626 135.718725 148.58626 135.718725 148.58626 
C 135.718725 148.58626 135.718725 148.58626 135.718725 148.58626 
C 135.718725 148.58626 135.718725 148.58626 135.718725 148.58626 
C 135.718725 148.58626 135.718725 148.58626 135.718725 148.58626 
C 135.718725 148.58626 135.718725 148.58626 135.718725 148.58626 
C 135.718725 148.58626 135.718725 148.58626 135.718725 148.58626 
C 135.718725 148.58626 135.718725 148.58626 135.718725 148.58626 
C 135.718725 148.58626 135.718725 148.58626 135.718725 148.58626 
C 135.718725 148.58626 135.718725 148.58626 135.718725 148.58626 
C 135.718725 148.58626 135.718725 148.58626 135.718725 148.58626 
C 135.718725 148.58626 135.718725 148.58626 135.718725 148.58626 
C 135.718725 148.58626 135.718725 148.58626 135.718725 148.58626 
C 135.718725 148.58626 135.718725 148.58626 135.718725 148.58626 
C 135.718725 148.58626 135.718725 148.58626 135.718725 148.58626 
C 135.718725 148.58626 135.718725 148.58626 135.718725 148.58626 
z
" style="fill: #ffffff"/>
   </g>
   <g id="line2d_1">
    <path d="M 135.718725 113.09626 
L 171.208725 148.58626 
L 135.718725 184.07626 
L 100.228725 148.58626 
L 135.718725 113.09626 
" clip-path="url(#p6af9479e45)" style="fill: none; stroke: #d8d8d8; stroke-width: 0.7; stroke-linecap: square"/>
   </g>
   <g id="line2d_2">
    <path d="M 135.718725 77.60626 
L 206.698725 148.58626 
L 135.718725 219.56626 
L 64.738725 148.58626 
L 135.718725 77.60626 
" clip-path="url(#p6af9479e45)" style="fill: none; stroke: #d8d8d8; stroke-width: 0.7; stroke-linecap: square"/>
   </g>
   <g id="line2d_3">
    <path d="M 135.718725 42.11626 
L 242.188725 148.58626 
L 135.718725 255.05626 
L 29.248725 148.58626 
L 135.718725 42.11626 
" clip-path="url(#p6af9479e45)" style="fill: none; stroke: #d8d8d8; stroke-width: 0.7; stroke-linecap: square"/>
   </g>
   <g id="line2d_4">
    <path d="M 135.718725 148.58626 
L 135.718725 42.11626 
" clip-path="url(#p6af9479e45)" style="fill: none; stroke: #d8d8d8; stroke-width: 0.7; stroke-linecap: square"/>
   </g>
   <g id="line2d_5">
    <path d="M 135.718725 148.58626 
L 242.188725 148.58626 
" clip-path="url(#p6af9479e45)" style="fill: none; stroke: #d8d8d8; stroke-width: 0.7; stroke-linecap: square"/>
   </g>
   <g id="line2d_6">
    <path d="M 135.718725 148.58626 
L 135.718725 255.05626 
" clip-path="url(#p6af9479e45)" style="fill: none; stroke: #d8d8d8; stroke-width: 0.7; stroke-linecap: square"/>
   </g>
   <g id="line2d_7">
    <path d="M 135.718725 148.58626 
L 29.248725 148.58626 
" clip-path="url(#p6af9479e45)" style="fill: none; stroke: #d8d8d8; stroke-width: 0.7; stroke-linecap: square"/>
   </g>
   <g id="patch_3">
    <path d="M 135.718725 123.097012 
L 158.477473 148.58626 
L 135.718725 160.87445 
L 125.415177 148.58626 
z
" clip-path="url(#p6af9479e45)" style="fill: #7884b4; opacity: 0.045; stroke: #7884b4; stroke-linejoin: miter"/>
   </g>
   <g id="patch_4">
    <path d="M 135.718725 100.415745 
L 164.667077 148.58626 
L 135.718725 174.080463 
L 109.956354 148.58626 
z
" clip-path="url(#p6af9479e45)" style="fill: #42949e; opacity: 0.045; stroke: #42949e; stroke-linejoin: miter"/>
   </g>
   <g id="patch_5">
    <path d="M 135.718725 73.830813 
L 182.14817 148.58626 
L 135.718725 181.896694 
L 104.25169 148.58626 
z
" clip-path="url(#p6af9479e45)" style="fill: #8bcf8b; opacity: 0.045; stroke: #8bcf8b; stroke-linejoin: miter"/>
   </g>
   <g id="patch_6">
    <path d="M 135.718725 52.419808 
L 199.078611 148.58626 
L 135.718725 195.144649 
L 92.534273 148.58626 
z
" clip-path="url(#p6af9479e45)" style="fill: #0f4d92; opacity: 0.045; stroke: #0f4d92; stroke-linejoin: miter"/>
   </g>
   <g id="matplotlib.axis_1">
    <g id="xtick_1"/>
    <g id="xtick_2"/>
    <g id="xtick_3"/>
    <g id="xtick_4"/>
   </g>
   <g id="matplotlib.axis_2">
    <g id="ytick_1"/>
    <g id="ytick_2"/>
    <g id="ytick_3"/>
   </g>
   <g id="line2d_8">
    <path d="M 135.718725 123.097012 
L 158.477473 148.58626 
L 135.718725 160.87445 
L 125.415177 148.58626 
L 135.718725 123.097012 
" clip-path="url(#p6af9479e45)" style="fill: none; stroke: #7884b4; stroke-width: 2; stroke-linecap: square"/>
    <defs>
     <path id="ma63af9c4ba" d="M 0 2.4 
C 0.636487 2.4 1.246992 2.147121 1.697056 1.697056 
C 2.147121 1.246992 2.4 0.636487 2.4 0 
C 2.4 -0.636487 2.147121 -1.246992 1.697056 -1.697056 
C 1.246992 -2.147121 0.636487 -2.4 0 -2.4 
C -0.636487 -2.4 -1.246992 -2.147121 -1.697056 -1.697056 
C -2.147121 -1.246992 -2.4 -0.636487 -2.4 0 
C -2.4 0.636487 -2.147121 1.246992 -1.697056 1.697056 
C -1.246992 2.147121 -0.636487 2.4 0 2.4 
z
" style="stroke: #7884b4"/>
    </defs>
    <g clip-path="url(#p6af9479e45)">
     <use xlink:href="#ma63af9c4ba" x="135.718725" y="123.097012" style="fill: #7884b4; stroke: #7884b4"/>
     <use xlink:href="#ma63af9c4ba" x="158.477473" y="148.58626" style="fill: #7884b4; stroke: #7884b4"/>
     <use xlink:href="#ma63af9c4ba" x="135.718725" y="160.87445" style="fill: #7884b4; stroke: #7884b4"/>
     <use xlink:href="#ma63af9c4ba" x="125.415177" y="148.58626" style="fill: #7884b4; stroke: #7884b4"/>
     <use xlink:href="#ma63af9c4ba" x="135.718725" y="123.097012" style="fill: #7884b4; stroke: #7884b4"/>
    </g>
   </g>
   <g id="line2d_9">
    <path d="M 135.718725 100.415745 
L 164.667077 148.58626 
L 135.718725 174.080463 
L 109.956354 148.58626 
L 135.718725 100.415745 
" clip-path="url(#p6af9479e45)" style="fill: none; stroke: #42949e; stroke-width: 2; stroke-linecap: square"/>
    <defs>
     <path id="m8b6bea348c" d="M 0 2.4 
C 0.636487 2.4 1.246992 2.147121 1.697056 1.697056 
C 2.147121 1.246992 2.4 0.636487 2.4 0 
C 2.4 -0.636487 2.147121 -1.246992 1.697056 -1.697056 
C 1.246992 -2.147121 0.636487 -2.4 0 -2.4 
C -0.636487 -2.4 -1.246992 -2.147121 -1.697056 -1.697056 
C -2.147121 -1.246992 -2.4 -0.636487 -2.4 0 
C -2.4 0.636487 -2.147121 1.246992 -1.697056 1.697056 
C -1.246992 2.147121 -0.636487 2.4 0 2.4 
z
" style="stroke: #42949e"/>
    </defs>
    <g clip-path="url(#p6af9479e45)">
     <use xlink:href="#m8b6bea348c" x="135.718725" y="100.415745" style="fill: #42949e; stroke: #42949e"/>
     <use xlink:href="#m8b6bea348c" x="164.667077" y="148.58626" style="fill: #42949e; stroke: #42949e"/>
     <use xlink:href="#m8b6bea348c" x="135.718725" y="174.080463" style="fill: #42949e; stroke: #42949e"/>
     <use xlink:href="#m8b6bea348c" x="109.956354" y="148.58626" style="fill: #42949e; stroke: #42949e"/>
     <use xlink:href="#m8b6bea348c" x="135.718725" y="100.415745" style="fill: #42949e; stroke: #42949e"/>
    </g>
   </g>
   <g id="line2d_10">
    <path d="M 135.718725 73.830813 
L 182.14817 148.58626 
L 135.718725 181.896694 
L 104.25169 148.58626 
L 135.718725 73.830813 
" clip-path="url(#p6af9479e45)" style="fill: none; stroke: #8bcf8b; stroke-width: 2; stroke-linecap: square"/>
    <defs>
     <path id="mbd99ea06df" d="M 0 2.4 
C 0.636487 2.4 1.246992 2.147121 1.697056 1.697056 
C 2.147121 1.246992 2.4 0.636487 2.4 0 
C 2.4 -0.636487 2.147121 -1.246992 1.697056 -1.697056 
C 1.246992 -2.147121 0.636487 -2.4 0 -2.4 
C -0.636487 -2.4 -1.246992 -2.147121 -1.697056 -1.697056 
C -2.147121 -1.246992 -2.4 -0.636487 -2.4 0 
C -2.4 0.636487 -2.147121 1.246992 -1.697056 1.697056 
C -1.246992 2.147121 -0.636487 2.4 0 2.4 
z
" style="stroke: #8bcf8b"/>
    </defs>
    <g clip-path="url(#p6af9479e45)">
     <use xlink:href="#mbd99ea06df" x="135.718725" y="73.830813" style="fill: #8bcf8b; stroke: #8bcf8b"/>
     <use xlink:href="#mbd99ea06df" x="182.14817" y="148.58626" style="fill: #8bcf8b; stroke: #8bcf8b"/>
     <use xlink:href="#mbd99ea06df" x="135.718725" y="181.896694" style="fill: #8bcf8b; stroke: #8bcf8b"/>
     <use xlink:href="#mbd99ea06df" x="104.25169" y="148.58626" style="fill: #8bcf8b; stroke: #8bcf8b"/>
     <use xlink:href="#mbd99ea06df" x="135.718725" y="73.830813" style="fill: #8bcf8b; stroke: #8bcf8b"/>
    </g>
   </g>
   <g id="line2d_11">
    <path d="M 135.718725 52.419808 
L 199.078611 148.58626 
L 135.718725 195.144649 
L 92.534273 148.58626 
L 135.718725 52.419808 
" clip-path="url(#p6af9479e45)" style="fill: none; stroke: #0f4d92; stroke-width: 2; stroke-linecap: square"/>
    <defs>
     <path id="m6a41dff67f" d="M 0 2.4 
C 0.636487 2.4 1.246992 2.147121 1.697056 1.697056 
C 2.147121 1.246992 2.4 0.636487 2.4 0 
C 2.4 -0.636487 2.147121 -1.246992 1.697056 -1.697056 
C 1.246992 -2.147121 0.636487 -2.4 0 -2.4 
C -0.636487 -2.4 -1.246992 -2.147121 -1.697056 -1.697056 
C -2.147121 -1.246992 -2.4 -0.636487 -2.4 0 
C -2.4 0.636487 -2.147121 1.246992 -1.697056 1.697056 
C -1.246992 2.147121 -0.636487 2.4 0 2.4 
z
" style="stroke: #0f4d92"/>
    </defs>
    <g clip-path="url(#p6af9479e45)">
     <use xlink:href="#m6a41dff67f" x="135.718725" y="52.419808" style="fill: #0f4d92; stroke: #0f4d92"/>
     <use xlink:href="#m6a41dff67f" x="199.078611" y="148.58626" style="fill: #0f4d92; stroke: #0f4d92"/>
     <use xlink:href="#m6a41dff67f" x="135.718725" y="195.144649" style="fill: #0f4d92; stroke: #0f4d92"/>
     <use xlink:href="#m6a41dff67f" x="92.534273" y="148.58626" style="fill: #0f4d92; stroke: #0f4d92"/>
     <use xlink:href="#m6a41dff67f" x="135.718725" y="52.419808" style="fill: #0f4d92; stroke: #0f4d92"/>
    </g>
   </g>
   <g id="text_1">
    <text style="font-size: 8.5px; font-family: 'Arial', 'DejaVu Sans', 'Liberation Sans', sans-serif; text-anchor: middle; fill: #272727" x="135.718725" y="33.136617" transform="rotate(-0 135.718725 33.136617)">25%</text>
   </g>
   <g id="text_2">
    <text style="font-size: 8.5px; font-family: 'Arial', 'DejaVu Sans', 'Liberation Sans', sans-serif; text-anchor: middle; fill: #272727" x="253.368075" y="150.785967" transform="rotate(-0 253.368075 150.785967)">50%</text>
   </g>
   <g id="text_3">
    <text style="font-size: 8.5px; font-family: 'Arial', 'DejaVu Sans', 'Liberation Sans', sans-serif; text-anchor: middle; fill: #272727" x="135.718725" y="268.435317" transform="rotate(-0 135.718725 268.435317)">75%</text>
   </g>
   <g id="text_4">
    <text style="font-size: 8.5px; font-family: 'Arial', 'DejaVu Sans', 'Liberation Sans', sans-serif; text-anchor: middle; fill: #272727" x="18.069375" y="150.785967" transform="rotate(-0 18.069375 150.785967)">100%</text>
   </g>
   <g id="text_5">
    <g id="patch_7">
     <path d="M 154.18117 125.916718 
L 164.75117 125.916718 
L 164.75117 118.507382 
L 154.18117 118.507382 
z
" style="fill: #ffffff; opacity: 0.88"/>
    </g>
    <text style="font-size: 7px; font-family: 'Arial', 'DejaVu Sans', 'Liberation Sans', sans-serif; text-anchor: middle; fill: #272727" x="159.46617" y="124.023573" transform="rotate(-0 159.46617 124.023573)">4.1</text>
   </g>
   <g id="text_6">
    <g id="patch_8">
     <path d="M 177.928615 99.542508 
L 188.498615 99.542508 
L 188.498615 92.133172 
L 177.928615 92.133172 
z
" style="fill: #ffffff; opacity: 0.88"/>
    </g>
    <text style="font-size: 7px; font-family: 'Arial', 'DejaVu Sans', 'Liberation Sans', sans-serif; text-anchor: middle; fill: #272727" x="183.213615" y="97.649363" transform="rotate(-0 183.213615 97.649363)">4.5</text>
   </g>
   <g id="text_7">
    <g id="patch_9">
     <path d="M 201.676061 73.168298 
L 212.246061 73.168298 
L 212.246061 65.758962 
L 201.676061 65.758962 
z
" style="fill: #ffffff; opacity: 0.88"/>
    </g>
    <text style="font-size: 7px; font-family: 'Arial', 'DejaVu Sans', 'Liberation Sans', sans-serif; text-anchor: middle; fill: #272727" x="206.961061" y="71.275154" transform="rotate(-0 206.961061 71.275154)">4.9</text>
   </g>
   <g id="text_8">
    <text style="font-size: 8px; font-family: 'Arial', 'DejaVu Sans', 'Liberation Sans', sans-serif; text-anchor: middle; fill: #272727" x="135.718725" y="291.196972" transform="rotate(-0 135.718725 291.196972)">CAV penetration</text>
   </g>
   <g id="text_9">
    <text style="font-size: 9.5px; font-family: 'Arial', 'DejaVu Sans', 'Liberation Sans', sans-serif; text-anchor: middle" x="135.718725" y="14.11626" transform="rotate(-0 135.718725 14.11626)">CAV jerk over traffic volume and CAV penetration</text>
   </g>
   <g id="legend_1">
    <g id="line2d_12">
     <path d="M 247.662156 46.803651 
L 254.662156 46.803651 
L 261.662156 46.803651 
" style="fill: none; stroke: #7884b4; stroke-width: 2; stroke-linecap: square"/>
     <g>
      <use xlink:href="#ma63af9c4ba" x="254.662156" y="46.803651" style="fill: #7884b4; stroke: #7884b4"/>
     </g>
    </g>
    <g id="text_10">
     <text style="font-size: 7px; font-family: 'Arial', 'DejaVu Sans', 'Liberation Sans', sans-serif; text-anchor: start" x="267.262156" y="49.253651" transform="rotate(-0 267.262156 49.253651)">2400 veh/h</text>
    </g>
    <g id="line2d_13">
     <path d="M 247.662156 56.872987 
L 254.662156 56.872987 
L 261.662156 56.872987 
" style="fill: none; stroke: #42949e; stroke-width: 2; stroke-linecap: square"/>
     <g>
      <use xlink:href="#m8b6bea348c" x="254.662156" y="56.872987" style="fill: #42949e; stroke: #42949e"/>
     </g>
    </g>
    <g id="text_11">
     <text style="font-size: 7px; font-family: 'Arial', 'DejaVu Sans', 'Liberation Sans', sans-serif; text-anchor: start" x="267.262156" y="59.322987" transform="rotate(-0 267.262156 59.322987)">3000 veh/h</text>
    </g>
    <g id="line2d_14">
     <path d="M 247.662156 66.942323 
L 254.662156 66.942323 
L 261.662156 66.942323 
" style="fill: none; stroke: #8bcf8b; stroke-width: 2; stroke-linecap: square"/>
     <g>
      <use xlink:href="#mbd99ea06df" x="254.662156" y="66.942323" style="fill: #8bcf8b; stroke: #8bcf8b"/>
     </g>
    </g>
    <g id="text_12">
     <text style="font-size: 7px; font-family: 'Arial', 'DejaVu Sans', 'Liberation Sans', sans-serif; text-anchor: start" x="267.262156" y="69.392323" transform="rotate(-0 267.262156 69.392323)">3600 veh/h</text>
    </g>
    <g id="line2d_15">
     <path d="M 247.662156 77.011659 
L 254.662156 77.011659 
L 261.662156 77.011659 
" style="fill: none; stroke: #0f4d92; stroke-width: 2; stroke-linecap: square"/>
     <g>
      <use xlink:href="#m6a41dff67f" x="254.662156" y="77.011659" style="fill: #0f4d92; stroke: #0f4d92"/>
     </g>
    </g>
    <g id="text_13">
     <text style="font-size: 7px; font-family: 'Arial', 'DejaVu Sans', 'Liberation Sans', sans-serif; text-anchor: start" x="267.262156" y="79.461659" transform="rotate(-0 267.262156 79.461659)">4200 veh/h</text>
    </g>
   </g>
  </g>
 </g>
 <defs>
  <clipPath id="p6af9479e45">
   <path d="M 242.188725 148.58626 
C 242.188725 134.604747 239.434672 120.759188 234.084179 107.841955 
C 228.733686 94.924722 220.890806 83.187023 211.004384 73.300601 
C 201.117962 63.414179 189.380263 55.571299 176.46303 50.220806 
C 163.545797 44.870313 149.700237 42.11626 135.718725 42.11626 
C 121.737213 42.11626 107.891653 44.870313 94.97442 50.220806 
C 82.057187 55.571299 70.319488 63.414179 60.433066 73.300601 
C 50.546644 83.187023 42.703764 94.924722 37.353271 107.841955 
C 32.002778 120.759188 29.248725 134.604747 29.248725 148.58626 
C 29.248725 162.567772 32.002778 176.413332 37.353271 189.330565 
C 42.703764 202.247798 50.546644 213.985497 60.433066 223.871919 
C 70.319488 233.758341 82.057187 241.60122 94.97442 246.951714 
C 107.891653 252.302207 121.737213 255.05626 135.718725 255.05626 
C 149.700237 255.05626 163.545797 252.302207 176.46303 246.951714 
C 189.380263 241.60122 201.117962 233.758341 211.004384 223.871919 
C 220.890806 213.985497 228.733686 202.247798 234.084179 189.330565 
C 239.434672 176.413332 242.188725 162.567772 242.188725 148.58626 
M 135.718725 148.58626 
C 135.718725 148.58626 135.718725 148.58626 135.718725 148.58626 
C 135.718725 148.58626 135.718725 148.58626 135.718725 148.58626 
C 135.718725 148.58626 135.718725 148.58626 135.718725 148.58626 
C 135.718725 148.58626 135.718725 148.58626 135.718725 148.58626 
C 135.718725 148.58626 135.718725 148.58626 135.718725 148.58626 
C 135.718725 148.58626 135.718725 148.58626 135.718725 148.58626 
C 135.718725 148.58626 135.718725 148.58626 135.718725 148.58626 
C 135.718725 148.58626 135.718725 148.58626 135.718725 148.58626 
C 135.718725 148.58626 135.718725 148.58626 135.718725 148.58626 
C 135.718725 148.58626 135.718725 148.58626 135.718725 148.58626 
C 135.718725 148.58626 135.718725 148.58626 135.718725 148.58626 
C 135.718725 148.58626 135.718725 148.58626 135.718725 148.58626 
C 135.718725 148.58626 135.718725 148.58626 135.718725 148.58626 
C 135.718725 148.58626 135.718725 148.58626 135.718725 148.58626 
C 135.718725 148.58626 135.718725 148.58626 135.718725 148.58626 
C 135.718725 148.58626 135.718725 148.58626 135.718725 148.58626 
z
"/>
  </clipPath>
 </defs>
</svg>
